<svg xmlns="http://www.w3.org/2000/svg" viewBox="0 0 900 350" font-family="'Noto Sans SC', 'Helvetica Neue', sans-serif">
  <defs>
    <!-- Substrate gradient -->
    <linearGradient id="subGrad" x1="0" y1="0" x2="0" y2="1">
      <stop offset="0%" stop-color="#889aaa"/>
      <stop offset="100%" stop-color="#556677"/>
    </linearGradient>
    <!-- Arrow marker for gas flow -->
    <marker id="arrowAmber" markerWidth="8" markerHeight="6" refX="8" refY="3" orient="auto">
      <path d="M0,0 L8,3 L0,6 Z" fill="#f0a050"/>
    </marker>
    <marker id="arrowGray" markerWidth="8" markerHeight="6" refX="8" refY="3" orient="auto">
      <path d="M0,0 L8,3 L0,6 Z" fill="#999"/>
    </marker>
    <marker id="arrowCycle" markerWidth="10" markerHeight="8" refX="10" refY="4" orient="auto">
      <path d="M0,0 L10,4 L0,8 Z" fill="#4a7fbf"/>
    </marker>
  </defs>

  <!-- Background -->
  <rect width="900" height="350" fill="#fafbfc" rx="6"/>

  <!-- Title -->
  <text x="450" y="24" text-anchor="middle" font-size="14" font-weight="bold" fill="#334">ALD循环: TMA/H₂O 工艺沉积 Al₂O₃</text>

  <!-- ============================================================ -->
  <!-- PANEL 1: TMA Pulse -->
  <!-- ============================================================ -->
  <g transform="translate(10, 38)">
    <rect width="205" height="265" rx="5" fill="#f4f6f8" stroke="#ccd" stroke-width="0.8"/>
    <!-- Panel title -->
    <text x="102" y="20" text-anchor="middle" font-size="11.5" font-weight="bold" fill="#334">① 脉冲A: TMA吸附</text>

    <!-- Substrate -->
    <rect x="15" y="210" width="175" height="40" rx="3" fill="url(#subGrad)"/>
    <text x="102" y="235" text-anchor="middle" font-size="9" fill="#dde" font-weight="bold">Si 基底</text>

    <!-- -OH groups on surface (5 sites) -->
    <!-- Site 1 -->
    <circle cx="35" cy="205" r="4.5" fill="#d05050"/>
    <circle cx="35" cy="195" r="3" fill="#eee"/>
    <line x1="35" y1="200" x2="35" y2="210" stroke="#666" stroke-width="1"/>
    <text x="35" y="189" text-anchor="middle" font-size="6" fill="#666">OH</text>

    <!-- Site 2 - TMA already chemisorbed -->
    <circle cx="70" cy="205" r="4.5" fill="#d05050"/>
    <line x1="70" y1="200" x2="70" y2="210" stroke="#666" stroke-width="1"/>
    <!-- Al bonded -->
    <circle cx="70" cy="185" r="5" fill="#4a7fbf"/>
    <text x="70" y="188" text-anchor="middle" font-size="5.5" fill="white" font-weight="bold">Al</text>
    <line x1="70" y1="191" x2="70" y2="200" stroke="#666" stroke-width="1"/>
    <!-- CH3 groups on chemisorbed Al -->
    <circle cx="58" cy="176" r="3.5" fill="#50a050"/>
    <text x="58" y="178.5" text-anchor="middle" font-size="4" fill="white">CH₃</text>
    <line x1="63" y1="180" x2="66" y2="183" stroke="#666" stroke-width="0.8"/>
    <circle cx="82" cy="176" r="3.5" fill="#50a050"/>
    <text x="82" y="178.5" text-anchor="middle" font-size="4" fill="white">CH₃</text>
    <line x1="77" y1="180" x2="74" y2="183" stroke="#666" stroke-width="0.8"/>

    <!-- CH4 leaving -->
    <circle cx="85" cy="155" r="3" fill="#50a050" opacity="0.5"/>
    <text x="85" y="157" text-anchor="middle" font-size="4" fill="white">CH₄</text>
    <line x1="82" y1="158" x2="78" y2="165" stroke="#50a050" stroke-width="0.5" stroke-dasharray="2" opacity="0.5"/>
    <text x="90" y="148" font-size="5" fill="#50a050" opacity="0.7">↑CH₄</text>

    <!-- Site 3 - OH available -->
    <circle cx="105" cy="205" r="4.5" fill="#d05050"/>
    <circle cx="105" cy="195" r="3" fill="#eee"/>
    <line x1="105" y1="200" x2="105" y2="210" stroke="#666" stroke-width="1"/>
    <text x="105" y="189" text-anchor="middle" font-size="6" fill="#666">OH</text>

    <!-- Site 4 - TMA approaching -->
    <g opacity="0.85">
      <circle cx="140" cy="130" r="6" fill="#4a7fbf"/>
      <text x="140" y="133" text-anchor="middle" font-size="5.5" fill="white" font-weight="bold">Al</text>
      <circle cx="127" cy="122" r="4" fill="#50a050"/>
      <text x="127" y="124.5" text-anchor="middle" font-size="4" fill="white">CH₃</text>
      <line x1="132" y1="125" x2="136" y2="128" stroke="#666" stroke-width="0.8"/>
      <circle cx="153" cy="122" r="4" fill="#50a050"/>
      <text x="153" y="124.5" text-anchor="middle" font-size="4" fill="white">CH₃</text>
      <line x1="148" y1="125" x2="144" y2="128" stroke="#666" stroke-width="0.8"/>
      <circle cx="140" cy="117" r="4" fill="#50a050"/>
      <text x="140" y="119.5" text-anchor="middle" font-size="4" fill="white">CH₃</text>
      <line x1="140" y1="121" x2="140" y2="124" stroke="#666" stroke-width="0.8"/>
      <!-- Downward arrow -->
      <line x1="140" y1="138" x2="140" y2="170" stroke="#4a7fbf" stroke-width="1.2" stroke-dasharray="3,2"/>
      <polygon points="136,168 140,176 144,168" fill="#4a7fbf" opacity="0.7"/>
      <text x="152" y="155" font-size="5.5" fill="#4a7fbf">TMA</text>
    </g>

    <!-- Site 5 - OH -->
    <circle cx="160" cy="205" r="4.5" fill="#d05050"/>
    <circle cx="160" cy="195" r="3" fill="#eee"/>
    <line x1="160" y1="200" x2="160" y2="210" stroke="#666" stroke-width="1"/>
    <text x="160" y="189" text-anchor="middle" font-size="6" fill="#666">OH</text>

    <!-- Self-limiting note -->
    <text x="102" y="258" text-anchor="middle" font-size="6.5" fill="#667" font-style="italic">自限制反应 (Self-limiting)</text>
  </g>

  <!-- ============================================================ -->
  <!-- PANEL 2: Purge 1 -->
  <!-- ============================================================ -->
  <g transform="translate(225, 38)">
    <rect width="205" height="265" rx="5" fill="#f4f6f8" stroke="#ccd" stroke-width="0.8"/>
    <text x="102" y="20" text-anchor="middle" font-size="11.5" font-weight="bold" fill="#334">② 吹扫 (Purge)</text>

    <!-- Substrate -->
    <rect x="15" y="210" width="175" height="40" rx="3" fill="url(#subGrad)"/>
    <text x="102" y="235" text-anchor="middle" font-size="9" fill="#dde" font-weight="bold">Si 基底</text>

    <!-- Chemisorbed Al-CH3 monolayer (all sites occupied) -->
    <!-- Site 1 -->
    <circle cx="35" cy="205" r="4" fill="#d05050"/>
    <circle cx="35" cy="190" r="5" fill="#4a7fbf"/>
    <text x="35" y="193" text-anchor="middle" font-size="5" fill="white" font-weight="bold">Al</text>
    <line x1="35" y1="195" x2="35" y2="201" stroke="#666" stroke-width="1"/>
    <circle cx="25" cy="181" r="3.5" fill="#50a050"/>
    <line x1="29" y1="184" x2="32" y2="187" stroke="#666" stroke-width="0.7"/>
    <circle cx="45" cy="181" r="3.5" fill="#50a050"/>
    <line x1="41" y1="184" x2="38" y2="187" stroke="#666" stroke-width="0.7"/>

    <!-- Site 2 -->
    <circle cx="70" cy="205" r="4" fill="#d05050"/>
    <circle cx="70" cy="190" r="5" fill="#4a7fbf"/>
    <text x="70" y="193" text-anchor="middle" font-size="5" fill="white" font-weight="bold">Al</text>
    <line x1="70" y1="195" x2="70" y2="201" stroke="#666" stroke-width="1"/>
    <circle cx="60" cy="181" r="3.5" fill="#50a050"/>
    <line x1="64" y1="184" x2="67" y2="187" stroke="#666" stroke-width="0.7"/>
    <circle cx="80" cy="181" r="3.5" fill="#50a050"/>
    <line x1="76" y1="184" x2="73" y2="187" stroke="#666" stroke-width="0.7"/>

    <!-- Site 3 -->
    <circle cx="105" cy="205" r="4" fill="#d05050"/>
    <circle cx="105" cy="190" r="5" fill="#4a7fbf"/>
    <text x="105" y="193" text-anchor="middle" font-size="5" fill="white" font-weight="bold">Al</text>
    <line x1="105" y1="195" x2="105" y2="201" stroke="#666" stroke-width="1"/>
    <circle cx="95" cy="181" r="3.5" fill="#50a050"/>
    <line x1="99" y1="184" x2="102" y2="187" stroke="#666" stroke-width="0.7"/>
    <circle cx="115" cy="181" r="3.5" fill="#50a050"/>
    <line x1="111" y1="184" x2="108" y2="187" stroke="#666" stroke-width="0.7"/>

    <!-- Site 4 -->
    <circle cx="140" cy="205" r="4" fill="#d05050"/>
    <circle cx="140" cy="190" r="5" fill="#4a7fbf"/>
    <text x="140" y="193" text-anchor="middle" font-size="5" fill="white" font-weight="bold">Al</text>
    <line x1="140" y1="195" x2="140" y2="201" stroke="#666" stroke-width="1"/>
    <circle cx="130" cy="181" r="3.5" fill="#50a050"/>
    <line x1="134" y1="184" x2="137" y2="187" stroke="#666" stroke-width="0.7"/>
    <circle cx="150" cy="181" r="3.5" fill="#50a050"/>
    <line x1="146" y1="184" x2="143" y2="187" stroke="#666" stroke-width="0.7"/>

    <!-- Site 5 -->
    <circle cx="175" cy="205" r="4" fill="#d05050"/>
    <circle cx="175" cy="190" r="5" fill="#4a7fbf"/>
    <text x="175" y="193" text-anchor="middle" font-size="5" fill="white" font-weight="bold">Al</text>
    <line x1="175" y1="195" x2="175" y2="201" stroke="#666" stroke-width="1"/>
    <circle cx="165" cy="181" r="3.5" fill="#50a050"/>
    <line x1="169" y1="184" x2="172" y2="187" stroke="#666" stroke-width="0.7"/>
    <circle cx="185" cy="181" r="3.5" fill="#50a050"/>
    <line x1="181" y1="184" x2="178" y2="187" stroke="#666" stroke-width="0.7"/>

    <!-- Gas flow arrows (Ar/N2 purge) sweeping left to right -->
    <line x1="10" y1="90" x2="185" y2="90" stroke="#f0a050" stroke-width="1.8" marker-end="url(#arrowAmber)"/>
    <line x1="10" y1="110" x2="185" y2="110" stroke="#f0a050" stroke-width="1.8" marker-end="url(#arrowAmber)"/>
    <line x1="10" y1="130" x2="185" y2="130" stroke="#f0a050" stroke-width="1.8" marker-end="url(#arrowAmber)"/>
    <text x="102" y="80" text-anchor="middle" font-size="8" fill="#f0a050" font-weight="bold">Ar / N₂</text>

    <!-- Byproducts being swept away -->
    <g opacity="0.4">
      <circle cx="165" cy="95" r="3" fill="#50a050"/>
      <text x="165" y="97.5" text-anchor="middle" font-size="4" fill="white">CH₄</text>
      <circle cx="175" cy="115" r="3" fill="#50a050"/>
      <text x="175" y="117.5" text-anchor="middle" font-size="4" fill="white">CH₄</text>
      <circle cx="160" cy="135" r="4" fill="#4a7fbf" opacity="0.3"/>
      <text x="160" y="137.5" text-anchor="middle" font-size="4" fill="white">TMA</text>
    </g>

    <text x="102" y="258" text-anchor="middle" font-size="6.5" fill="#667" font-style="italic">清除多余前驱体和副产物</text>
  </g>

  <!-- ============================================================ -->
  <!-- PANEL 3: H2O Pulse -->
  <!-- ============================================================ -->
  <g transform="translate(440, 38)">
    <rect width="205" height="265" rx="5" fill="#f4f6f8" stroke="#ccd" stroke-width="0.8"/>
    <text x="102" y="20" text-anchor="middle" font-size="11.5" font-weight="bold" fill="#334">③ 脉冲B: H₂O反应</text>

    <!-- Substrate -->
    <rect x="15" y="210" width="175" height="40" rx="3" fill="url(#subGrad)"/>
    <text x="102" y="235" text-anchor="middle" font-size="9" fill="#dde" font-weight="bold">Si 基底</text>

    <!-- Al2O3 layer forming - Al atoms bonded to O, some with new OH, some still CH3 -->
    <!-- Site 1 - reacted: new OH -->
    <circle cx="35" cy="205" r="4" fill="#d05050"/>
    <circle cx="35" cy="190" r="5" fill="#4a7fbf"/>
    <text x="35" y="193" text-anchor="middle" font-size="5" fill="white" font-weight="bold">Al</text>
    <line x1="35" y1="195" x2="35" y2="201" stroke="#666" stroke-width="1"/>
    <!-- New O-H on top -->
    <circle cx="35" cy="178" r="4" fill="#d05050"/>
    <circle cx="35" cy="170" r="2.5" fill="#eee"/>
    <line x1="35" y1="173" x2="35" y2="183" stroke="#666" stroke-width="0.8"/>
    <text x="35" y="165" text-anchor="middle" font-size="5.5" fill="#d05050">OH</text>

    <!-- Site 2 - reacted -->
    <circle cx="70" cy="205" r="4" fill="#d05050"/>
    <circle cx="70" cy="190" r="5" fill="#4a7fbf"/>
    <text x="70" y="193" text-anchor="middle" font-size="5" fill="white" font-weight="bold">Al</text>
    <line x1="70" y1="195" x2="70" y2="201" stroke="#666" stroke-width="1"/>
    <circle cx="70" cy="178" r="4" fill="#d05050"/>
    <circle cx="70" cy="170" r="2.5" fill="#eee"/>
    <line x1="70" y1="173" x2="70" y2="183" stroke="#666" stroke-width="0.8"/>
    <text x="70" y="165" text-anchor="middle" font-size="5.5" fill="#d05050">OH</text>

    <!-- Site 3 - H2O approaching and reacting -->
    <circle cx="105" cy="205" r="4" fill="#d05050"/>
    <circle cx="105" cy="190" r="5" fill="#4a7fbf"/>
    <text x="105" y="193" text-anchor="middle" font-size="5" fill="white" font-weight="bold">Al</text>
    <line x1="105" y1="195" x2="105" y2="201" stroke="#666" stroke-width="1"/>
    <!-- CH3 still there, about to be replaced -->
    <circle cx="105" cy="178" r="3.5" fill="#50a050" opacity="0.5"/>
    <line x1="105" y1="182" x2="105" y2="185" stroke="#666" stroke-width="0.7" opacity="0.5"/>

    <!-- H2O molecule approaching -->
    <g>
      <circle cx="108" cy="130" r="5" fill="#d05050" opacity="0.8"/>
      <text x="108" y="133" text-anchor="middle" font-size="5" fill="white" font-weight="bold">O</text>
      <circle cx="98" cy="124" r="3" fill="#eee" opacity="0.8"/>
      <text x="98" y="126.5" text-anchor="middle" font-size="4" fill="#666">H</text>
      <line x1="102" y1="126" x2="105" y2="128" stroke="#666" stroke-width="0.7"/>
      <circle cx="118" cy="124" r="3" fill="#eee" opacity="0.8"/>
      <text x="118" y="126.5" text-anchor="middle" font-size="4" fill="#666">H</text>
      <line x1="114" y1="126" x2="111" y2="128" stroke="#666" stroke-width="0.7"/>
      <!-- Arrow down -->
      <line x1="108" y1="137" x2="108" y2="160" stroke="#d05050" stroke-width="1" stroke-dasharray="3,2"/>
      <polygon points="104,158 108,166 112,158" fill="#d05050" opacity="0.6"/>
      <text x="125" y="145" font-size="5.5" fill="#d05050">H₂O</text>
    </g>

    <!-- Site 4 - reacted -->
    <circle cx="140" cy="205" r="4" fill="#d05050"/>
    <circle cx="140" cy="190" r="5" fill="#4a7fbf"/>
    <text x="140" y="193" text-anchor="middle" font-size="5" fill="white" font-weight="bold">Al</text>
    <line x1="140" y1="195" x2="140" y2="201" stroke="#666" stroke-width="1"/>
    <circle cx="140" cy="178" r="4" fill="#d05050"/>
    <circle cx="140" cy="170" r="2.5" fill="#eee"/>
    <line x1="140" y1="173" x2="140" y2="183" stroke="#666" stroke-width="0.8"/>
    <text x="140" y="165" text-anchor="middle" font-size="5.5" fill="#d05050">OH</text>

    <!-- Site 5 - reacted -->
    <circle cx="175" cy="205" r="4" fill="#d05050"/>
    <circle cx="175" cy="190" r="5" fill="#4a7fbf"/>
    <text x="175" y="193" text-anchor="middle" font-size="5" fill="white" font-weight="bold">Al</text>
    <line x1="175" y1="195" x2="175" y2="201" stroke="#666" stroke-width="1"/>
    <circle cx="175" cy="178" r="4" fill="#d05050"/>
    <circle cx="175" cy="170" r="2.5" fill="#eee"/>
    <line x1="175" y1="173" x2="175" y2="183" stroke="#666" stroke-width="0.8"/>
    <text x="175" y="165" text-anchor="middle" font-size="5.5" fill="#d05050">OH</text>

    <!-- CH4 byproduct rising -->
    <g opacity="0.45">
      <circle cx="50" cy="100" r="3" fill="#50a050"/>
      <text x="50" y="102.5" text-anchor="middle" font-size="4" fill="white">CH₄</text>
      <text x="57" y="95" font-size="5" fill="#50a050">↑</text>
      <circle cx="155" cy="110" r="3" fill="#50a050"/>
      <text x="155" y="112.5" text-anchor="middle" font-size="4" fill="white">CH₄</text>
      <text x="162" y="105" font-size="5" fill="#50a050">↑</text>
    </g>

    <!-- Al2O3 label -->
    <text x="102" y="258" text-anchor="middle" font-size="6.5" fill="#667" font-style="italic">形成一层原子级 Al₂O₃</text>
  </g>

  <!-- ============================================================ -->
  <!-- PANEL 4: Purge 2 -->
  <!-- ============================================================ -->
  <g transform="translate(655, 38)">
    <rect width="205" height="265" rx="5" fill="#f4f6f8" stroke="#ccd" stroke-width="0.8"/>
    <text x="102" y="20" text-anchor="middle" font-size="11.5" font-weight="bold" fill="#334">④ 吹扫 (Purge)</text>

    <!-- Substrate -->
    <rect x="15" y="210" width="175" height="40" rx="3" fill="url(#subGrad)"/>
    <text x="102" y="235" text-anchor="middle" font-size="9" fill="#dde" font-weight="bold">Si 基底</text>

    <!-- Clean OH-terminated Al2O3 surface -->
    <!-- Site 1 -->
    <circle cx="35" cy="205" r="4" fill="#d05050"/>
    <circle cx="35" cy="190" r="5" fill="#4a7fbf"/>
    <text x="35" y="193" text-anchor="middle" font-size="5" fill="white" font-weight="bold">Al</text>
    <line x1="35" y1="195" x2="35" y2="201" stroke="#666" stroke-width="1"/>
    <circle cx="35" cy="178" r="4" fill="#d05050"/>
    <circle cx="35" cy="170" r="2.5" fill="#eee"/>
    <line x1="35" y1="173" x2="35" y2="183" stroke="#666" stroke-width="0.8"/>
    <text x="35" y="165" text-anchor="middle" font-size="5.5" fill="#d05050">OH</text>

    <!-- Site 2 -->
    <circle cx="70" cy="205" r="4" fill="#d05050"/>
    <circle cx="70" cy="190" r="5" fill="#4a7fbf"/>
    <text x="70" y="193" text-anchor="middle" font-size="5" fill="white" font-weight="bold">Al</text>
    <line x1="70" y1="195" x2="70" y2="201" stroke="#666" stroke-width="1"/>
    <circle cx="70" cy="178" r="4" fill="#d05050"/>
    <circle cx="70" cy="170" r="2.5" fill="#eee"/>
    <line x1="70" y1="173" x2="70" y2="183" stroke="#666" stroke-width="0.8"/>
    <text x="70" y="165" text-anchor="middle" font-size="5.5" fill="#d05050">OH</text>

    <!-- Site 3 -->
    <circle cx="105" cy="205" r="4" fill="#d05050"/>
    <circle cx="105" cy="190" r="5" fill="#4a7fbf"/>
    <text x="105" y="193" text-anchor="middle" font-size="5" fill="white" font-weight="bold">Al</text>
    <line x1="105" y1="195" x2="105" y2="201" stroke="#666" stroke-width="1"/>
    <circle cx="105" cy="178" r="4" fill="#d05050"/>
    <circle cx="105" cy="170" r="2.5" fill="#eee"/>
    <line x1="105" y1="173" x2="105" y2="183" stroke="#666" stroke-width="0.8"/>
    <text x="105" y="165" text-anchor="middle" font-size="5.5" fill="#d05050">OH</text>

    <!-- Site 4 -->
    <circle cx="140" cy="205" r="4" fill="#d05050"/>
    <circle cx="140" cy="190" r="5" fill="#4a7fbf"/>
    <text x="140" y="193" text-anchor="middle" font-size="5" fill="white" font-weight="bold">Al</text>
    <line x1="140" y1="195" x2="140" y2="201" stroke="#666" stroke-width="1"/>
    <circle cx="140" cy="178" r="4" fill="#d05050"/>
    <circle cx="140" cy="170" r="2.5" fill="#eee"/>
    <line x1="140" y1="173" x2="140" y2="183" stroke="#666" stroke-width="0.8"/>
    <text x="140" y="165" text-anchor="middle" font-size="5.5" fill="#d05050">OH</text>

    <!-- Site 5 -->
    <circle cx="175" cy="205" r="4" fill="#d05050"/>
    <circle cx="175" cy="190" r="5" fill="#4a7fbf"/>
    <text x="175" y="193" text-anchor="middle" font-size="5" fill="white" font-weight="bold">Al</text>
    <line x1="175" y1="195" x2="175" y2="201" stroke="#666" stroke-width="1"/>
    <circle cx="175" cy="178" r="4" fill="#d05050"/>
    <circle cx="175" cy="170" r="2.5" fill="#eee"/>
    <line x1="175" y1="173" x2="175" y2="183" stroke="#666" stroke-width="0.8"/>
    <text x="175" y="165" text-anchor="middle" font-size="5.5" fill="#d05050">OH</text>

    <!-- Gas flow arrows -->
    <line x1="10" y1="90" x2="185" y2="90" stroke="#f0a050" stroke-width="1.8" marker-end="url(#arrowAmber)"/>
    <line x1="10" y1="110" x2="185" y2="110" stroke="#f0a050" stroke-width="1.8" marker-end="url(#arrowAmber)"/>
    <line x1="10" y1="130" x2="185" y2="130" stroke="#f0a050" stroke-width="1.8" marker-end="url(#arrowAmber)"/>
    <text x="102" y="80" text-anchor="middle" font-size="8" fill="#f0a050" font-weight="bold">Ar / N₂</text>

    <!-- Byproducts swept away -->
    <g opacity="0.35">
      <circle cx="170" cy="95" r="3" fill="#50a050"/>
      <text x="170" y="97.5" text-anchor="middle" font-size="4" fill="white">CH₄</text>
      <circle cx="180" cy="115" r="4" fill="#d05050" opacity="0.4"/>
      <text x="180" y="117.5" text-anchor="middle" font-size="4" fill="white">H₂O</text>
    </g>

    <text x="102" y="258" text-anchor="middle" font-size="6.5" fill="#667" font-style="italic">表面就绪，可进入下一循环</text>
  </g>

  <!-- ============================================================ -->
  <!-- Cyclic repeat arrow from Panel 4 back to Panel 1 -->
  <!-- ============================================================ -->
  <!-- Curved arrow under the panels -->
  <path d="M 855,320 C 870,335 870,345 855,345 L 55,345 C 35,345 35,335 50,320"
        fill="none" stroke="#4a7fbf" stroke-width="2" marker-end="url(#arrowCycle)"/>
  <text x="450" y="343" text-anchor="middle" font-size="10" fill="#4a7fbf" font-weight="bold">重复 (Repeat) ── 每循环沉积 ~1.1 A Al₂O₃</text>

  <!-- Legend at bottom-left -->
  <g transform="translate(12, 312)">
    <circle cx="5" cy="5" r="4" fill="#4a7fbf"/>
    <text x="14" y="8" font-size="6.5" fill="#556">Al</text>
    <circle cx="38" cy="5" r="4" fill="#d05050"/>
    <text x="47" y="8" font-size="6.5" fill="#556">O</text>
    <circle cx="65" cy="5" r="3.5" fill="#50a050"/>
    <text x="74" y="8" font-size="6.5" fill="#556">C/H</text>
    <circle cx="103" cy="5" r="3" fill="#eee" stroke="#ccc" stroke-width="0.5"/>
    <text x="111" y="8" font-size="6.5" fill="#556">H</text>
    <line x1="130" y1="5" x2="155" y2="5" stroke="#f0a050" stroke-width="2" marker-end="url(#arrowAmber)"/>
    <text x="163" y="8" font-size="6.5" fill="#556">惰性气体</text>
  </g>
</svg>